<?xml version="1.0" encoding="UTF-8" standalone="no"?>
<!-- Created with Inkscape (http://www.inkscape.org/) -->

<svg
   width="210mm"
   height="297mm"
   viewBox="0 0 210 297"
   version="1.1"
   id="svg5"
   inkscape:version="1.1.2 (0a00cf5339, 2022-02-04)"
   sodipodi:docname="logo.svg"
   xmlns:inkscape="http://www.inkscape.org/namespaces/inkscape"
   xmlns:sodipodi="http://sodipodi.sourceforge.net/DTD/sodipodi-0.dtd"
   xmlns="http://www.w3.org/2000/svg"
   xmlns:svg="http://www.w3.org/2000/svg">
  <sodipodi:namedview
     id="namedview7"
     pagecolor="#ffffff"
     bordercolor="#666666"
     borderopacity="1.0"
     inkscape:pageshadow="2"
     inkscape:pageopacity="0.0"
     inkscape:pagecheckerboard="0"
     inkscape:document-units="mm"
     showgrid="false"
     showguides="true"
     inkscape:guide-bbox="true"
     inkscape:zoom="1.5554293"
     inkscape:cx="374.17323"
     inkscape:cy="494.39727"
     inkscape:window-width="2560"
     inkscape:window-height="1311"
     inkscape:window-x="0"
     inkscape:window-y="32"
     inkscape:window-maximized="1"
     inkscape:current-layer="layer1" />
  <defs
     id="defs2" />
  <g
     inkscape:label="Layer 1"
     inkscape:groupmode="layer"
     id="layer1">
    <rect
       style="fill:#ffcc00;stroke-width:0.264583"
       id="rect11548"
       width="195.40701"
       height="69.34758"
       x="8.1663141"
       y="114.57384" />
    <g
       id="g11850">
      <text
         xml:space="preserve"
         style="font-style:normal;font-weight:normal;font-size:50.8px;line-height:1.25;font-family:sans-serif;fill:#ffffff;fill-opacity:1;stroke:none;stroke-width:0.264583"
         x="45.893036"
         y="171.11403"
         id="text1112"><tspan
           sodipodi:role="line"
           style="font-style:normal;font-variant:normal;font-weight:normal;font-stretch:normal;font-size:50.8px;font-family:Anton;-inkscape-font-specification:Anton;fill:#ffffff;stroke-width:0.264583"
           x="45.893036"
           y="171.11403"
           id="tspan1114">BITCOIN</tspan></text>
      <path
         id="rect11286"
         style="fill:#ffffff;stroke-width:0.999999"
         d="m 95.994141,481.04883 v 166.2207 h 72.029299 v -166.2207 z m 61.843749,25.67578 V 516.5 l -8.33594,0.73242 v 6.22266 l 8.33594,0.64648 v 10.03711 l -51.6582,-4.98828 v -17.52344 z m -16.58398,11.30078 -26.26953,2.25977 v 0.4707 l 26.26953,1.9668 z m -0.11719,18.10938 c 3.34603,0 6.27076,0.31329 8.77539,0.93945 2.50463,0.62616 4.45251,1.76063 5.8418,3.4043 1.38928,1.64366 2.08398,3.98267 2.08398,7.01562 v 14 h -51.6582 v -14 c 0,-3.75694 0.91847,-6.48709 2.75781,-8.18945 1.81977,-1.72194 4.83402,-2.58203 9.04102,-2.58203 h 2.25976 c 2.42636,0 4.3937,0.43977 5.90039,1.32031 1.50669,0.86097 2.49523,2.18225 2.96485,3.96289 0.58702,-2.32852 1.96473,-3.88527 4.13671,-4.66797 2.15242,-0.80226 4.78527,-1.20312 7.89649,-1.20312 z m -2.67188,10.21484 c -1.46755,0 -2.62149,0.22573 -3.46289,0.67578 -0.86096,0.43048 -1.29101,1.25166 -1.29101,2.46484 v 1.90821 h 14.96875 c 0.0391,-0.43049 0.0586,-0.77297 0.0586,-1.02735 0,-2.68073 -1.27264,-4.02148 -3.8164,-4.02148 z m -21.80664,0.67578 c -1.66323,0 -2.49609,0.73362 -2.49609,2.20117 v 2.17188 h 11.47656 v -2.11328 c 0,-0.95881 -0.37167,-1.57567 -1.11523,-1.84961 -0.74356,-0.27395 -1.63285,-0.41016 -2.66992,-0.41016 z m -10.47851,18.43164 h 37.83398 c 4.69618,0 8.25724,1.01772 10.6836,3.05274 2.40679,2.03501 3.60937,5.20493 3.60937,9.50976 0,4.30483 -1.20258,7.47476 -3.60937,9.50977 -2.42636,2.03501 -5.98742,3.05273 -10.6836,3.05273 h -37.83398 v -10.03906 h 37.42187 c 0.86097,0 1.69383,-0.0486 2.4961,-0.14649 0.78269,-0.0978 1.42679,-0.32161 1.93554,-0.67382 0.50876,-0.35222 0.76367,-0.92043 0.76368,-1.70313 0,-0.80226 -0.24519,-1.38021 -0.73438,-1.73242 -0.50875,-0.35221 -1.16258,-0.56626 -1.96484,-0.64453 -0.80227,-0.0978 -1.63513,-0.14649 -2.4961,-0.14649 h -37.42187 z m 29.41015,27.94141 h 9.77344 c 4.53964,0 7.83605,1.14616 9.89063,3.43554 2.03501,2.28939 3.05273,5.4885 3.05273,9.59766 0,3.73738 -1.16366,6.74967 -3.49219,9.03906 -2.32852,2.26982 -5.58601,3.40625 -9.77343,3.40625 h -23.83399 c -5.00926,0 -8.84469,-0.98853 -11.50586,-2.96484 -2.66117,-1.99588 -3.99219,-5.2339 -3.99219,-9.71484 0,-2.44593 0.45147,-4.61954 1.35157,-6.51758 0.9001,-1.91761 2.24862,-3.42376 4.04883,-4.51953 1.78063,-1.09578 4.03208,-1.64258 6.75195,-1.64258 h 8.92187 v 10.27148 h -7.63086 c -1.54582,0 -2.583,0.19654 -3.11132,0.58789 -0.54789,0.39135 -0.82227,0.99848 -0.82227,1.82032 0,0.9588 0.35221,1.6029 1.05664,1.93554 0.68486,0.33265 1.60529,0.5 2.75977,0.5 h 25.85742 c 1.42842,0 2.43641,-0.20627 3.02344,-0.61719 0.58702,-0.43048 0.88085,-1.03566 0.88086,-1.81835 0,-0.88054 -0.36195,-1.4974 -1.08594,-1.84961 -0.724,-0.37178 -1.66388,-0.5586 -2.81836,-0.5586 h -9.30274 z"
         transform="scale(0.26458333)" />
    </g>
  </g>
</svg>
